<svg width="1200" height="750" viewBox="0 0 1200 750" fill="none" xmlns="http://www.w3.org/2000/svg">
  <rect width="1200" height="750" fill="#050711"/>
  <circle cx="255" cy="168" r="220" fill="#55F0FF" fill-opacity="0.12"/>
  <circle cx="940" cy="620" r="260" fill="#8CFFD2" fill-opacity="0.1"/>
  <rect x="86" y="78" width="1028" height="594" rx="28" fill="#0D1222" stroke="white" stroke-opacity="0.12"/>
  <rect x="144" y="142" width="366" height="466" rx="22" fill="#111A2F" stroke="#55F0FF" stroke-opacity="0.24"/>
  <rect x="576" y="142" width="480" height="154" rx="22" fill="#091827" stroke="#8CFFD2" stroke-opacity="0.24"/>
  <rect x="576" y="346" width="480" height="262" rx="22" fill="#111126" stroke="#FF4FD8" stroke-opacity="0.2"/>
  <text x="174" y="222" fill="white" fill-opacity="0.92" font-family="Arial, sans-serif" font-size="42" font-weight="700">₹ 8,470</text>
  <text x="174" y="266" fill="#55F0FF" fill-opacity="0.9" font-family="Consolas, monospace" font-size="22">denomination engine</text>
  <rect x="174" y="330" width="276" height="54" rx="27" fill="#55F0FF" fill-opacity="0.95"/>
  <rect x="174" y="410" width="220" height="18" rx="9" fill="white" fill-opacity="0.24"/>
  <rect x="174" y="454" width="260" height="18" rx="9" fill="white" fill-opacity="0.16"/>
  <rect x="174" y="498" width="190" height="18" rx="9" fill="white" fill-opacity="0.12"/>
  <path d="M642 204H888" stroke="#8CFFD2" stroke-opacity="0.65" stroke-width="12" stroke-linecap="round"/>
  <path d="M642 246H986" stroke="white" stroke-opacity="0.18" stroke-width="12" stroke-linecap="round"/>
  <circle cx="680" cy="448" r="54" fill="#55F0FF" fill-opacity="0.14" stroke="#55F0FF" stroke-opacity="0.45"/>
  <circle cx="816" cy="448" r="54" fill="#8CFFD2" fill-opacity="0.14" stroke="#8CFFD2" stroke-opacity="0.45"/>
  <circle cx="952" cy="448" r="54" fill="#FF4FD8" fill-opacity="0.14" stroke="#FF4FD8" stroke-opacity="0.38"/>
  <path d="M642 548H1004" stroke="white" stroke-opacity="0.16" stroke-width="10" stroke-linecap="round"/>
  <text x="144" y="648" fill="white" fill-opacity="0.9" font-family="Arial, sans-serif" font-size="34" font-weight="700">Currency Denomination Converter</text>
</svg>
