<svg width="1200" height="750" viewBox="0 0 1200 750" fill="none" xmlns="http://www.w3.org/2000/svg">
  <rect width="1200" height="750" fill="#050711"/>
  <rect x="88" y="78" width="1024" height="594" rx="28" fill="#0D1222" stroke="white" stroke-opacity="0.12"/>
  <rect x="150" y="142" width="346" height="452" rx="20" fill="#101A2E" stroke="#55F0FF" stroke-opacity="0.22"/>
  <rect x="560" y="142" width="490" height="130" rx="20" fill="#0A1728" stroke="#8CFFD2" stroke-opacity="0.22"/>
  <rect x="560" y="322" width="490" height="272" rx="20" fill="#141126" stroke="#FF4FD8" stroke-opacity="0.18"/>
  <ellipse cx="323" cy="224" rx="104" ry="44" fill="#55F0FF" fill-opacity="0.14" stroke="#55F0FF" stroke-opacity="0.52"/>
  <path d="M219 224V440C219 464 265 484 323 484C381 484 427 464 427 440V224" stroke="#55F0FF" stroke-opacity="0.46" stroke-width="6"/>
  <ellipse cx="323" cy="440" rx="104" ry="44" stroke="#55F0FF" stroke-opacity="0.46" stroke-width="6"/>
  <path d="M620 194H808" stroke="#8CFFD2" stroke-opacity="0.55" stroke-width="10" stroke-linecap="round"/>
  <path d="M620 230H960" stroke="white" stroke-opacity="0.17" stroke-width="10" stroke-linecap="round"/>
  <path d="M620 394H982" stroke="#FF4FD8" stroke-opacity="0.5" stroke-width="9" stroke-linecap="round"/>
  <path d="M620 448H924" stroke="white" stroke-opacity="0.17" stroke-width="9" stroke-linecap="round"/>
  <path d="M620 502H1010" stroke="white" stroke-opacity="0.14" stroke-width="9" stroke-linecap="round"/>
  <path d="M496 368H560" stroke="#55F0FF" stroke-opacity="0.45" stroke-width="6" stroke-dasharray="10 14"/>
  <text x="150" y="636" fill="white" fill-opacity="0.9" font-family="Arial, sans-serif" font-size="34" font-weight="700">DataVault API</text>
  <text x="150" y="668" fill="#55F0FF" fill-opacity="0.86" font-family="Arial, sans-serif" font-size="22">secure service architecture</text>
</svg>
