<svg width="900" height="900" viewBox="0 0 900 900" fill="none" xmlns="http://www.w3.org/2000/svg">
  <rect width="900" height="900" fill="#070A14"/>
  <circle cx="450" cy="450" r="364" fill="url(#halo)" opacity="0.9"/>
  <circle cx="450" cy="370" r="160" fill="url(#face)" stroke="#55F0FF" stroke-opacity="0.24" stroke-width="3"/>
  <path d="M244 738C270 610 350 532 450 532C550 532 630 610 656 738H244Z" fill="url(#torso)" stroke="#8CFFD2" stroke-opacity="0.22" stroke-width="3"/>
  <path d="M304 361C333 242 414 190 505 220C573 243 615 304 603 382C571 331 516 315 448 323C391 330 345 342 304 361Z" fill="#101A2E" stroke="#55F0FF" stroke-opacity="0.3" stroke-width="3"/>
  <path d="M325 398C360 431 402 448 451 448C501 448 543 431 577 398" stroke="#55F0FF" stroke-width="8" stroke-linecap="round" opacity="0.84"/>
  <path d="M368 350H418" stroke="#8CFFD2" stroke-width="8" stroke-linecap="round"/>
  <path d="M482 350H532" stroke="#8CFFD2" stroke-width="8" stroke-linecap="round"/>
  <path d="M450 372V404" stroke="#55F0FF" stroke-opacity="0.45" stroke-width="5" stroke-linecap="round"/>
  <circle cx="228" cy="240" r="5" fill="#55F0FF"/>
  <circle cx="683" cy="265" r="7" fill="#FF4FD8"/>
  <circle cx="690" cy="644" r="5" fill="#8CFFD2"/>
  <circle cx="210" cy="628" r="7" fill="#FFD166"/>
  <path d="M146 452H258" stroke="#55F0FF" stroke-opacity="0.28" stroke-width="2"/>
  <path d="M642 452H754" stroke="#FF4FD8" stroke-opacity="0.28" stroke-width="2"/>
  <path d="M450 104V191" stroke="#8CFFD2" stroke-opacity="0.25" stroke-width="2"/>
  <path d="M450 708V798" stroke="#55F0FF" stroke-opacity="0.25" stroke-width="2"/>
  <circle cx="450" cy="450" r="310" stroke="#55F0FF" stroke-opacity="0.16" stroke-width="2"/>
  <circle cx="450" cy="450" r="250" stroke="#FF4FD8" stroke-opacity="0.12" stroke-width="2" stroke-dasharray="12 22"/>
  <defs>
    <radialGradient id="halo" cx="0" cy="0" r="1" gradientUnits="userSpaceOnUse" gradientTransform="translate(450 450) rotate(90) scale(364)">
      <stop stop-color="#55F0FF" stop-opacity="0.32"/>
      <stop offset="0.42" stop-color="#8CFFD2" stop-opacity="0.16"/>
      <stop offset="1" stop-color="#FF4FD8" stop-opacity="0"/>
    </radialGradient>
    <linearGradient id="face" x1="309" y1="222" x2="599" y2="526" gradientUnits="userSpaceOnUse">
      <stop stop-color="#162239"/>
      <stop offset="0.5" stop-color="#0B1224"/>
      <stop offset="1" stop-color="#111827"/>
    </linearGradient>
    <linearGradient id="torso" x1="244" y1="532" x2="656" y2="738" gradientUnits="userSpaceOnUse">
      <stop stop-color="#101A2E"/>
      <stop offset="0.48" stop-color="#0B1426"/>
      <stop offset="1" stop-color="#151028"/>
    </linearGradient>
  </defs>
</svg>
